<?xml version="1.0" encoding="UTF-8"?>
<!DOCTYPE svg PUBLIC "-//W3C//DTD SVG 1.1//EN" "http://www.w3.org/Graphics/SVG/1.1/DTD/svg11.dtd">
<!-- Creator: CorelDRAW X5 -->
<svg xmlns="http://www.w3.org/2000/svg" xml:space="preserve" width="27.4276mm" height="27.4276mm" style="shape-rendering:geometricPrecision; text-rendering:geometricPrecision; image-rendering:optimizeQuality; fill-rule:evenodd; clip-rule:evenodd"
viewBox="0 0 14.4724 14.4724"
 xmlns:xlink="http://www.w3.org/1999/xlink">
 <defs>
  <style type="text/css">
   <![CDATA[
    .fil0 {fill:#212121}
    .fil1 {fill:#FFC107}
   ]]>
  </style>
 </defs>
 <g id="Layer_x0020_1">
  <metadata id="CorelCorpID_0Corel-Layer"/>
  <circle class="fil0" cx="7.23618" cy="7.23618" r="6.71596"/>
  <path class="fil1" d="M7.23618 0c3.99642,0 7.23618,3.23976 7.23618,7.23618 0,3.99642 -3.23976,7.23618 -7.23618,7.23618 -3.99642,0 -7.23618,-3.23976 -7.23618,-7.23618 0,-3.99642 3.23976,-7.23618 7.23618,-7.23618zm-3.26081 3.6536l1.83862 0 0 0.752016c0.419857,-0.35295 0.798186,-0.597466 1.13963,-0.733601 0.339072,-0.138404 0.687431,-0.20758 1.0427,-0.20758 0.73128,0 1.34954,0.256072 1.85936,0.765894 0.429038,0.431359 0.641314,1.07035 0.641314,1.9193l0 4.85829 -1.82474 0 0 -3.22272c0,-0.878918 -0.0392577,-1.46256 -0.117667,-1.75092 -0.0784098,-0.288364 -0.216867,-0.5075 -0.412944,-0.659782 -0.196077,-0.14996 -0.436003,-0.226048 -0.724367,-0.226048 -0.376008,0 -0.696665,0.124527 -0.964293,0.376008 -0.267575,0.24916 -0.454471,0.595197 -0.558261,1.03579 -0.0530823,0.230692 -0.0807315,0.728958 -0.0807315,1.49485l0 2.95282 -1.83862 0 0 -7.35432z"/>
 </g>
</svg>
