<svg xmlns="http://www.w3.org/2000/svg" xmlns:xlink="http://www.w3.org/1999/xlink" width="631.68" height="159.028" viewBox="0 0 163.929 41.27" xml:space="preserve" style="shape-rendering:geometricPrecision;text-rendering:geometricPrecision;image-rendering:optimizeQuality;fill-rule:evenodd;clip-rule:evenodd"><defs><style type="text/css">.fil0{fill:#434242}.fil2{fill:#fbbe07}.fil3{fill:#fdfdfd}.fil1{fill:#fefefe}</style></defs><g id="Layer_x0020_1"><metadata id="CorelCorpID_0Corel-Layer"/><g id="_514614096"><g><path id="_514613160" d="M81.4103 11.879c0.213724,0.534556 2.82471,6.82024 3.06433,7.18678l3.76818 -8.79143 -6.8325 1.60465z" class="fil0"/><path id="_514613904" d="M80.15 34.0657l10.6768 2.05564c-0.872257,-1.12159 -2.48662,-2.08339 -4.47987,-2.4669 -1.72519,-0.331817 -4.67241,-0.204897 -6.19692,0.411265z" class="fil0"/></g><g><path id="_499065904" d="M25.3285 9.96206l0 21.5085c0,4.16895 1.68213,7.60766 5.65589,9.04292 1.11786,0.40381 2.39187,0.66589 3.71413,0.756323l2.04642 0c2.56704,-0.177727 5.10947,-1.04047 6.87409,-2.80274 2.10232,-2.09958 2.47053,-4.69477 2.47053,-7.7439l0 -20.2628c0,-5.00187 -1.54835,-8.14516 -5.74191,-9.70439 -1.40466,-0.522197 -2.65963,-0.602429 -4.39493,-0.75593l-2.39628 0.16939c-1.32374,0.14742 -2.81853,0.60086 -3.91403,1.23477 -0.522491,0.302294 -1.08471,0.64794 -1.51284,1.06146 -1.83966,1.77639 -2.80107,3.92393 -2.80107,7.49643z" class="fil1"/><path id="_499065880" d="M116.926 8.79947l0 23.7506c0,2.34243 1.14375,4.93694 2.84796,6.36994 2.26495,1.90478 4.69095,2.34969 8.03089,2.34969 1.3714,0 3.08581,-0.325932 4.09421,-0.722386 1.83936,-0.723072 3.04324,-1.56747 4.12697,-3.09787 0.313181,-0.442259 0.63823,-1.00565 0.841361,-1.56689 0.437355,-1.20829 0.736608,-2.40952 0.736608,-4.07989l0 -22.2559c0,-2.15097 -0.485808,-4.06959 -1.56012,-5.66472 -0.973872,-1.44624 -2.50486,-2.57234 -4.24172,-3.14917 -2.12626,-0.706104 -2.33037,-0.4504 -4.1867,-0.714049 -0.377033,-0.0535536 -1.90184,0.0711106 -2.24445,0.118387 -0.828022,0.114365 -1.30039,0.176845 -2.0218,0.386449 -2.52399,0.733469 -4.29126,2.02445 -5.45443,4.34481 -0.498265,0.993979 -0.968772,2.48652 -0.968772,3.9309z" class="fil1"/><path id="_499066312" d="M153.217 17.1039l-3.90304 0 0 -10.0484c3.22263,0 6.39436,-0.585461 6.39436,2.98959l0 4.48438c0,1.60278 -1.10236,2.5744 -2.49132,2.5744zm-10.7127 23.7506l6.80965 0 0 -17.0241c2.71025,0 2.18511,-0.264826 2.50927,0.895405l4.71557 16.1287 7.39089 0c-0.037566,-0.451479 -0.543089,-1.75864 -0.716206,-2.27338l-2.2215 -6.83035c-0.199992,-0.594583 -2.92436,-8.67412 -2.9584,-9.08303 1.48126,-0.783786 2.65905,-1.58415 3.51512,-3.12838 1.65447,-2.98468 1.30147,-6.1879 1.30147,-9.66045 0,-1.57944 -0.242266,-3.04608 -0.722091,-4.17758 -0.548385,-1.29333 -0.761227,-1.42123 -1.43692,-2.29996 -0.782707,-1.01801 -2.53556,-1.94392 -3.7876,-2.35764 -1.1821,-0.390667 -2.81961,-0.631855 -4.35089,-0.631855l-10.0484 0 0 40.4426z" class="fil1"/><path id="_499065664" d="M-0 40.8546l6.31139 0 0 -23.2524c0.0623812,0.0897465 0.0161838,0.0107892 0.0901388,0.158895l0.211076 0.536419c0.103282,0.292485 0.18322,0.465701 0.269828,0.726603 0.171646,0.517195 0.353003,0.930617 0.539558,1.4535 0.356436,0.999178 0.687468,1.93235 1.07274,2.91348 1.1467,2.92014 2.68033,7.14696 3.76474,10.1866 0.186653,0.522982 0.367912,0.936404 0.539558,1.4535 0.315045,0.948959 0.72935,1.94245 1.07902,2.9072l1.0699 2.91622 5.48091 0 0 -40.4426 -6.06216 0c-0.483356,0 -0.182141,1.02468 -0.165761,1.32835 0.0294251,0.543285 0.00147125,1.19073 -0.000588502,1.74461 -0.00255017,0.682956 0.0880791,1.01379 0.0843519,1.65948 -0.00333484,0.578988 -0.0115739,1.17053 -0.00441376,1.74834 0.0065716,0.528474 0.0871963,0.931892 0.0864117,1.57454 -0.00284442,2.35528 0.167429,4.38296 0.166056,6.72657 -0.000686585,1.1978 0.0904331,1.92813 0.0818998,3.40595 -0.00362909,0.645684 0.0870002,0.97652 0.08445,1.65948 -0.00863136,2.31222 0.165859,4.51567 0.165859,6.80994 -0.124076,-0.142712 -0.0989664,-0.107598 -0.179983,-0.318379l-1.61671 -4.6115c-0.211959,-0.622635 -0.412049,-1.1515 -0.601056,-1.72421l-0.87314 -2.44866c-0.111325,-0.318477 -0.190282,-0.598702 -0.289445,-0.87314 -0.407047,-1.1259 -0.804678,-2.2162 -1.20535,-3.36211 -0.799087,-2.28535 -1.5457,-4.42455 -2.3441,-6.70784l-1.78718 -5.02237c-0.138298,-0.418228 -0.431862,-1.58905 -0.736216,-1.58905l-5.23178 0 0 40.4426z" class="fil1"/><path id="_514612608" d="M95.9992 40.8546l17.3562 0 0 -17.1072c-0.879614,1.01203 -1.71676,2.00463 -2.59922,3.04775l-3.89961 4.57089c-0.551034,0.619006 -3.61262,4.35305 -3.96474,4.58884l0 -33.5499c0,-0.779667 0.162034,-1.99306 -0.249132,-1.99306l-6.6435 0 0 40.4426z" class="fil1"/><path id="_514612680" d="M48.1657 0.661083l0 6.22831c0,0.191361 0.0577712,0.249132 0.249132,0.249132l6.39436 0 0 33.716 6.97571 0 0 -33.716 6.64359 0 0 -6.47744c0,-0.191361 -0.0577712,-0.249132 -0.249132,-0.249132l-19.7645 0c-0.191361,0 -0.249132,0.0577712 -0.249132,0.249132z" class="fil1"/></g><path id="_514613016" d="M73.245 21.3392c0,0.734254 -1.88693,15.4611 -2.10105,17.0821l-0.307198 2.43326 22.1729 -0.0830768c-0.409303,0 -8.79614,-1.63378 -9.10049,-1.69538l-4.52999 -0.867844c-0.786729,-0.130451 -1.52824,-0.276007 -2.30771,-0.432745 -0.52818,-0.106225 -1.90694,-0.408812 -2.33155,-0.408812 0.0818998,-0.351924 0.206956,-0.682564 0.332111,-0.996529 0.133099,-0.333778 0.239912,-0.669323 0.380172,-1.03164 0.564765,-1.45831 1.69528,-4.6884 2.22454,-6.24596 0.180474,-0.531221 2.9226,-7.99921 2.9225,-8.25266 -9.80836e-005,-0.158307 -1.39514,-3.4545 -1.58797,-3.93825 -1.29147,-3.23911 -2.85276,-6.67724 -4.12893,-9.90556 -0.189792,-0.480119 -0.713852,-1.61759 -0.806836,-2.0167 0.18479,-0.0886676 0.840478,-0.209703 1.12904,-0.282677l8.33799 -1.95951c0.780647,-0.197835 1.54501,-0.341821 2.35891,-0.547699 0.839007,-0.212351 1.56718,-0.380761 2.42266,-0.566923l3.55563 -0.845677c0.270122,-0.0679719 0.334465,-0.078565 0.614003,-0.133394 0.306315,-0.0601252 0.352807,-0.00902369 0.51592,-0.231575 -6.99307,0 -14.277,0.0644409 -21.2601,-0.000686585 -0.843225,-0.00784669 -0.93611,-0.167723 -0.851954,0.5067 0.316025,2.5336 0.54917,5.15351 0.877946,7.60707 0.103674,0.773585 0.235891,1.79415 0.304648,2.60196 0.150166,1.76345 0.632639,5.76957 0.880693,7.58981 0.0647352,0.474528 0.080919,0.802128 0.143398,1.26832 0.0451185,0.336721 0.14075,0.948959 0.14075,1.35404z" class="fil2"/><path id="_514612728" d="M80.15 34.0657c1.52451,-0.616161 4.47173,-0.743081 6.19692,-0.411265 1.99325,0.383507 3.60761,1.34531 4.47987,2.4669l-10.6768 -2.05564zm8.09278 -23.7914l-3.76818 8.79143c-0.239618,-0.366538 -2.8506,-6.65223 -3.06433,-7.18678l6.8325 -1.60465zm-10.3472 -2.96968l0.666478 1.65869c1.17887,2.66581 2.35636,5.86226 3.51404,8.44441 0.25796,0.575358 0.48571,1.15287 0.706398,1.70185 0.859899,2.1395 0.881477,1.26126 0.0851366,3.46461 -0.213724,0.591346 -0.399495,1.15081 -0.621654,1.78659l-3.76906 10.5146 13.9514 2.65738c-0.0824883,-0.354082 -0.659318,-1.69606 -0.828316,-2.07829l-6.14739 -14.7797 2.76821 -6.28353c0.664026,-1.38259 2.11812,-4.67447 2.81971,-6.31521 0.318968,-0.745828 0.603705,-1.39828 0.944643,-2.12792l0.941406 -2.13126c-0.292387,0.0243247 -0.566629,0.117798 -0.892855,0.186653 -0.281598,0.0595367 -0.627147,0.15507 -0.933167,0.229516 -0.637151,0.154972 -1.22673,0.29533 -1.89037,0.434903 -1.19436,0.25129 -10.7415,2.58911 -11.3146,2.63678z" class="fil3"/></g></g></svg>