<?xml version="1.0" encoding="UTF-8"?>
<!DOCTYPE svg PUBLIC "-//W3C//DTD SVG 1.1//EN" "http://www.w3.org/Graphics/SVG/1.1/DTD/svg11.dtd">
<!-- Creator: CorelDRAW X5 -->
<svg xmlns="http://www.w3.org/2000/svg" xml:space="preserve" width="136.919mm" height="30.9848mm" style="shape-rendering:geometricPrecision; text-rendering:geometricPrecision; image-rendering:optimizeQuality; fill-rule:evenodd; clip-rule:evenodd"
viewBox="0 0 134.762 30.4967"
 xmlns:xlink="http://www.w3.org/1999/xlink">
 <defs>
  <style type="text/css">
   <![CDATA[
    .fil1 {fill:#FEFEFE;fill-rule:nonzero}
    .fil0 {fill:#FFC107;fill-rule:nonzero}
   ]]>
  </style>
 </defs>
 <g id="Layer_x0020_1">
  <metadata id="CorelCorpID_0Corel-Layer"/>
  <g id="_264059512">
   <path id="_452204016" class="fil0" d="M-0 8.33577l5.40134 0 0 2.20934c1.23346,-1.0369 2.34487,-1.7553 3.34791,-2.1551 0.996155,-0.40669 2.01948,-0.609937 3.06317,-0.609937 2.14831,0 3.96454,0.752259 5.46227,2.24999 1.26052,1.26722 1.88404,3.14447 1.88404,5.63845l0 14.2724 -5.3606 0 0 -9.46756c0,-2.58197 -0.115255,-4.29663 -0.345667,-5.14377 -0.230412,-0.84714 -0.637004,-1.49094 -1.21308,-1.93818 -0.576079,-0.440548 -1.2809,-0.664169 -2.12804,-0.664169 -1.10462,0 -2.04664,0.365943 -2.83276,1.10462 -0.786117,0.731983 -1.33513,1.74851 -1.64005,3.04289 -0.155905,0.677752 -0.237203,2.14152 -0.237203,4.39151l0 8.67465 -5.40134 0 0 -21.6052z"/>
   <path id="_452204208" class="fil1" d="M123.166 8.33577l4.64219 0 0 2.72429c0.508264,-1.07076 1.17243,-1.88394 2.00599,-2.43965 0.833656,-0.562496 1.74851,-0.840349 2.74477,-0.840349 0.698027,0 1.42991,0.189763 2.20254,0.555705l-1.68749 4.66936c-0.637102,-0.318502 -1.15885,-0.474406 -1.57233,-0.474406 -0.833558,0 -1.53838,0.515056 -2.11436,1.54517 -0.576079,1.0369 -0.860723,3.05648 -0.860723,6.079l0.0203739 1.05049 0 8.73557 -5.38097 0 0 -21.6052z"/>
   <path id="_452204112" class="fil1" d="M108.548 7.78007c2.03985,0 3.95775,0.515056 5.7537,1.53158 1.78906,1.01653 3.19191,2.40579 4.19495,4.14751 1.00974,1.74851 1.51131,3.63256 1.51131,5.65882 0,2.03995 -0.508264,3.94427 -1.5181,5.71984 -1.01653,1.77558 -2.39231,3.15815 -4.14072,4.1611 -1.74851,0.996253 -3.6732,1.49773 -5.78087,1.49773 -3.09713,0 -5.74012,-1.10462 -7.92908,-3.30716 -2.18906,-2.20254 -3.28689,-4.8795 -3.28689,-8.03085 0,-3.37488 1.24015,-6.18736 3.71385,-8.43735 2.16859,-1.95855 4.66257,-2.94122 7.48184,-2.94122z"/>
   <polygon id="_452204568" class="fil1" points="88.0812,0 93.5028,0 93.5028,29.9409 88.0812,29.9409 "/>
   <path id="_452203296" class="fil1" d="M84.2725 20.7106l-17.417 0c0.250786,1.53168 0.928439,2.75146 2.01957,3.65962 1.09113,0.908163 2.4804,1.3622 4.17468,1.3622 2.02627,0 3.76799,-0.71161 5.22506,-2.12804l4.56769 2.14841c-1.13848,1.61288 -2.50067,2.80569 -4.09328,3.58502 -1.58582,0.772534 -3.46986,1.15885 -5.65882,1.15885 -3.38856,0 -6.14681,-1.07076 -8.27475,-3.20549 -2.13483,-2.14162 -3.1988,-4.81847 -3.1988,-8.03085 0,-3.30037 1.06397,-6.03156 3.18522,-8.21373 2.12804,-2.17548 4.79141,-3.26651 7.99011,-3.26651 3.40214,0 6.16709,1.09104 8.30191,3.26651 2.12794,2.18217 3.1987,5.05568 3.1987,8.62711l-0.0202755 1.0369zm-5.44199 -4.26946c-0.359151,-1.20639 -1.06397,-2.18227 -2.11445,-2.94132 -1.05039,-0.752259 -2.27705,-1.13169 -3.66631,-1.13169 -1.50452,0 -2.83286,0.426867 -3.97133,1.27401 -0.71161,0.528638 -1.37578,1.46387 -1.98572,2.799l11.7378 0z"/>
   <polygon id="_452203968" class="fil1" points="51.0921,0.379525 56.4934,0.379525 56.4934,8.33577 59.7057,8.33577 59.7057,13.0051 56.4934,13.0051 56.4934,29.9409 51.0921,29.9409 51.0921,13.0051 48.3136,13.0051 48.3136,8.33577 51.0921,8.33577 "/>
   <path id="_452203728" class="fil1" d="M34.5494 7.78007c2.03985,0 3.95775,0.515056 5.7537,1.53158 1.78906,1.01653 3.19191,2.40579 4.19495,4.14751 1.00974,1.74851 1.51131,3.63256 1.51131,5.65882 0,2.03995 -0.508264,3.94427 -1.5181,5.71984 -1.01653,1.77558 -2.39231,3.15815 -4.14072,4.1611 -1.74851,0.996253 -3.6732,1.49773 -5.78087,1.49773 -3.09713,0 -5.74012,-1.10462 -7.92908,-3.30716 -2.18906,-2.20254 -3.28689,-4.8795 -3.28689,-8.03085 0,-3.37488 1.24015,-6.18736 3.71385,-8.43735 2.16859,-1.95855 4.66257,-2.94122 7.48184,-2.94122z"/>
  </g>
 </g>
</svg>
